<svg xmlns="http://www.w3.org/2000/svg" xmlns:xlink="http://www.w3.org/1999/xlink" width="0" height="0" style="position:absolute">
	
		<symbol id="at" viewBox="0 0 28 28">
			<path d="M16.452 22.568a9.431 9.431 0 0 0 1.52-.31v.97c-1.111.33-2.571.522-4.098.522-3.28 0-5.933-.956-7.764-2.64-1.828-1.683-2.86-4.114-2.86-7.115 0-2.902 1.058-5.333 2.878-7.04 1.82-1.707 4.42-2.705 7.527-2.705 3.002 0 5.527.89 7.298 2.4 1.768 1.507 2.797 3.643 2.797 6.17 0 1.916-.462 3.454-1.262 4.507-.794 1.046-1.932 1.63-3.338 1.63-1.432 0-2.457-.787-2.588-1.794l-.029-.218h-.587l-.067.147c-.509 1.119-1.57 1.759-2.998 1.759-1.274 0-2.327-.485-3.063-1.32-.74-.84-1.176-2.05-1.176-3.524 0-1.403.444-2.577 1.188-3.398.742-.819 1.796-1.3 3.05-1.3 1.281 0 2.341.609 2.793 1.548l.068.142h.615V9.537h1.448v6.78c0 .475.15.88.46 1.166.308.282.74.416 1.247.416.929 0 1.67-.55 2.165-1.45.492-.895.757-2.154.757-3.653 0-2.237-.916-4.128-2.502-5.457-1.583-1.325-3.817-2.078-6.444-2.078-5.18 0-8.92 3.68-8.92 8.806 0 2.618.913 4.79 2.551 6.306 1.636 1.515 3.972 2.354 6.782 2.354.893 0 1.782-.057 2.552-.159zm-3.248-12.106c-.93 0-1.691.337-2.216.976-.518.631-.782 1.53-.782 2.616 0 1.08.267 1.981.783 2.617.521.642 1.275.988 2.188.988.95 0 1.747-.353 2.304-.995.553-.639.849-1.54.849-2.61 0-1.068-.293-1.967-.84-2.603-.552-.64-1.343-.99-2.286-.99z" fill="#0077C8" stroke="#0077C8" stroke-width=".5"></path>
		</symbol>
	
		<symbol id="checked" viewBox="0 0 18 13">
			<path d="M15.931.336c.112-.106.245-.19.392-.248a1.272 1.272 0 0 1 .93 0c.146.057.28.142.391.248.468.442.475 1.157.017 1.606L7.985 12.634a1.2 1.2 0 0 1-.392.266 1.272 1.272 0 0 1-.949.017 1.208 1.208 0 0 1-.402-.253L.354 7.088A1.12 1.12 0 0 1 0 6.277c0-.303.127-.594.354-.81.112-.107.245-.192.392-.25a1.272 1.272 0 0 1 .93 0c.147.058.28.143.392.25l4.994 4.73L15.898.37a.395.395 0 0 1 .033-.034z" fill="#FECC04"></path>
		</symbol>
	
		<symbol id="chevron-down" viewBox="0 0 12 8">
			<g clip-path="url(#a)"><path d="M1 1l5 5 5-5" stroke="#506998" stroke-width="1.5"></path></g><defs><clipPath id="a"><path fill="#fff" d="M0 0h12v8H0z"></path></clipPath></defs>
		</symbol>
	
		<symbol id="fb" viewBox="0 0 32 32">
			<path d="M13.88 16.824h-2.376c-.384 0-.504-.144-.504-.504v-2.904c0-.384.144-.504.504-.504h2.376V10.8c0-.96.168-1.872.648-2.712.504-.864 1.224-1.44 2.136-1.776A5.34 5.34 0 0 1 18.512 6h2.352c.336 0 .48.144.48.48v2.736c0 .336-.144.48-.48.48-.648 0-1.296 0-1.944.024-.648 0-.984.312-.984.984-.024.72 0 1.416 0 2.16h2.784c.384 0 .528.144.528.528v2.904c0 .384-.12.504-.528.504h-2.784v7.824c0 .408-.12.552-.552.552h-3c-.36 0-.504-.144-.504-.504v-7.848z" fill="#fff"></path>
		</symbol>
	
		<symbol id="inst" viewBox="0 0 32 32">
			<g clip-path="url(#a)"><path d="M20.5 7h-9A4.513 4.513 0 0 0 7 11.5v9c0 2.475 2.025 4.5 4.5 4.5h9c2.475 0 4.5-2.025 4.5-4.5v-9C25 9.024 22.975 7 20.5 7zM16 19.75a3.75 3.75 0 1 1 0-7.5 3.75 3.75 0 0 1 0 7.5zm4.875-7.5a1.125 1.125 0 1 1 0-2.25 1.125 1.125 0 0 1 0 2.25z" fill="#fff"></path></g><defs><clipPath id="a"><path fill="#fff" transform="translate(7 7)" d="M0 0h18v18H0z"></path></clipPath></defs>
		</symbol>
	
		<symbol id="int" viewBox="0 0 32 32">
			<path d="M19.728 5.664a11.036 11.036 0 0 1 6.63 6.67h-4.04c-.436-2.771-1.36-5.102-2.59-6.67zM10.867 16c0 .75.037 1.487.108 2.2h4.292v-4.4h-4.292a22.293 22.293 0 0 0-.108 2.2zm4.4 10.869v-7.202h-4.089c.641 3.74 2.217 6.597 4.089 7.202zM22.6 16c0 .754-.04 1.486-.105 2.2h4.283a10.995 10.995 0 0 0 0-4.4h-4.283c.065.714.105 1.446.105 2.2zm-1.778-3.667c-.641-3.74-2.217-6.597-4.089-7.202v7.202h4.089zm-5.555 0V5.131c-1.872.605-3.448 3.462-4.089 7.202h4.089zM5.222 13.8a11.014 11.014 0 0 0 0 4.4h4.283A24.239 24.239 0 0 1 9.4 16c0-.754.04-1.486.105-2.2H5.222zm11.511 5.867v7.202c1.872-.605 3.448-3.462 4.089-7.202h-4.089zm5.586 0c-.436 2.77-1.361 5.1-2.591 6.669a11.037 11.037 0 0 0 6.63-6.67h-4.04zm-12.638 0h-4.04a11.037 11.037 0 0 0 6.631 6.669c-1.23-1.568-2.154-3.899-2.59-6.67zM21.134 16a22.3 22.3 0 0 0-.109-2.2h-4.292v4.4h4.292c.072-.731.109-1.465.109-2.2zM9.68 12.333c.437-2.77 1.361-5.1 2.591-6.669a11.036 11.036 0 0 0-6.63 6.67h4.04z" fill="#fff"></path>
		</symbol>
	
		<symbol id="phone" viewBox="0 0 24 39">
			<path d="M20.916 0H3.084c-.405 0-.806.074-1.18.216A3.114 3.114 0 0 0 .901.832a2.835 2.835 0 0 0-.668.922A2.643 2.643 0 0 0 0 2.841v33.32C0 37.729 1.378 39 3.084 39h17.832c.818 0 1.602-.3 2.18-.832A2.73 2.73 0 0 0 24 36.162V2.84a2.73 2.73 0 0 0-.903-2.008A3.228 3.228 0 0 0 20.916 0zM7.6 1.725h8.803c.223 0 .403.306.403.684 0 .378-.18.685-.403.685H7.6c-.224 0-.402-.307-.402-.685 0-.378.178-.684.402-.684zm4.402 34.471c-.523 0-1.024-.19-1.393-.53-.37-.34-.577-.801-.577-1.282 0-.48.208-.941.577-1.281.37-.34.87-.531 1.393-.531.522 0 1.023.19 1.392.53.37.34.577.801.577 1.282 0 .48-.208.941-.577 1.281-.37.34-.87.531-1.393.531zm9.688-6.21H2.312V4.795H21.69v25.193z" fill="#0077C8"></path><path fill="#0077C8" d="M1 2.119h2v28.667H1zM21 2.119h2v28.667h-2z"></path>
		</symbol>
	
		<symbol id="point" viewBox="0 0 34 34">
			<path d="M5.193 15.742A3.108 3.108 0 0 0 2.79 20.81l7.894 9.67a2.821 2.821 0 0 0 2.358 1.047c.958-.051 1.823-.564 2.374-1.407L31.815 3.712a.353.353 0 0 1 .008-.013c.154-.236.104-.704-.213-.999a.87.87 0 0 0-1.284.11L13.788 21.494a.716.716 0 0 1-1.019.055l-5.488-4.994a3.094 3.094 0 0 0-2.088-.813z" fill="#0077C8"></path>
		</symbol>
	
		<symbol id="shape" viewBox="0 0 16 16">
			<path d="M1.973 16a1.275 1.275 0 1 1 0-2.55h9.673L.373 2.177A1.275 1.275 0 1 1 2.177.373L13.45 11.646V1.973a1.275 1.275 0 0 1 2.55 0v12.752c0 .704-.57 1.275-1.275 1.275H1.973z" fill="#fff"></path>
		</symbol>
	
</svg>
