<svg width="480" height="840" viewBox="0 0 480 840" fill="none" xmlns="http://www.w3.org/2000/svg">
<path d="M400.616 590.316C434.708 604.976 439.888 658.649 187.88 756.065C127.373 741.12 -45.0697 679.017 -250.783 550.168C-507.925 389.107 -23.3685 526.495 53.5182 506.253C115.028 490.061 310.546 555.548 400.616 590.316Z" stroke="#0077C8"/>
<path d="M114.078 311.476C148.17 326.135 153.35 379.809 -98.6575 477.225C-159.165 462.279 -331.608 400.176 -537.321 271.327C-794.463 110.266 -309.907 247.654 -233.02 227.413C-171.51 211.22 24.008 276.708 114.078 311.476Z" stroke="#0077C8"/>
<path d="M393.59 583.481C427.681 598.14 432.861 651.814 180.854 749.229C120.346 734.284 -52.0965 672.181 -257.81 543.332C-514.951 382.271 -30.3953 519.659 46.4914 499.418C108.001 483.225 303.519 548.713 393.59 583.481Z" stroke="#0077C8"/>
<path d="M385.912 576.005C420.003 590.665 425.183 644.338 173.176 741.754C112.668 726.809 -59.7746 664.706 -265.488 535.857C-522.63 374.795 -38.0734 512.183 38.8133 491.942C100.323 475.75 295.841 541.237 385.912 576.005Z" stroke="#0077C8"/>
<path d="M377.567 567.884C411.658 582.544 416.839 636.217 164.831 733.633C104.324 718.687 -68.1193 656.584 -273.833 527.735C-530.974 366.674 -46.4181 504.062 30.4686 483.821C91.9781 467.628 287.496 533.116 377.567 567.884Z" stroke="#0077C8"/>
<path d="M368.556 559.116C402.647 573.775 407.828 627.449 155.82 724.865C95.3129 709.919 -77.13 647.816 -282.843 518.967C-539.985 357.906 -55.4289 495.294 21.4579 475.053C82.9673 458.86 278.486 524.348 368.556 559.116Z" stroke="#0077C8"/>
<path d="M358.879 549.702C392.97 564.361 398.151 618.035 146.143 715.451C85.6357 700.505 -86.8072 638.402 -292.521 509.553C-549.662 348.492 -65.106 485.88 11.7807 465.639C73.2901 449.446 268.808 514.934 358.879 549.702Z" stroke="#0077C8"/>
<path d="M348.55 539.648C382.642 554.308 387.822 607.981 135.814 705.397C75.3071 690.451 -97.1358 628.348 -302.849 499.499C-559.991 338.438 -75.4346 475.826 1.45211 455.585C62.9615 439.392 258.48 504.88 348.55 539.648Z" stroke="#0077C8"/>
<path d="M337.555 528.948C371.646 543.608 376.827 597.281 124.819 694.697C64.3119 679.752 -108.131 617.649 -313.844 488.8C-570.986 327.738 -86.4298 465.126 -9.54301 444.885C51.9664 428.693 247.485 494.18 337.555 528.948Z" stroke="#0077C8"/>
<path d="M325.894 517.602C359.985 532.261 365.166 585.935 113.158 683.351C52.6508 668.405 -119.792 606.302 -325.505 477.453C-582.647 316.392 -98.0909 453.78 -21.2041 433.539C40.3053 417.346 235.824 482.834 325.894 517.602Z" stroke="#0077C8"/>
<path d="M313.581 505.616C347.672 520.276 352.853 573.95 100.845 671.365C40.3378 656.42 -132.105 594.317 -337.818 465.468C-594.96 304.407 -110.404 441.795 -33.5171 421.554C27.9923 405.361 223.511 470.849 313.581 505.616Z" stroke="#0077C8"/>
<path d="M300.587 492.977C334.679 507.637 339.859 561.31 87.8513 658.726C27.344 643.78 -145.099 581.677 -350.812 452.828C-607.954 291.767 -123.398 429.155 -46.5109 408.914C14.9985 392.721 210.517 458.209 300.587 492.977Z" stroke="#0077C8"/>
<path d="M286.942 479.699C321.033 494.359 326.213 548.032 74.2058 645.448C13.6985 630.502 -158.744 568.399 -364.458 439.55C-621.599 278.489 -137.043 415.877 -60.1564 395.636C1.35301 379.443 196.871 444.931 286.942 479.699Z" stroke="#0077C8"/>
<path d="M272.645 465.781C306.736 480.441 311.917 534.114 59.9089 631.53C-0.5984 616.585 -173.041 554.482 -378.755 425.633C-635.896 264.572 -151.34 401.959 -74.4534 381.718C-12.9439 365.526 182.574 431.013 272.645 465.781Z" stroke="#0077C8"/>
<path d="M257.667 451.209C291.758 465.869 296.939 519.542 44.9312 616.958C-15.5761 602.013 -188.019 539.91 -393.732 411.061C-650.874 250 -166.318 387.388 -89.431 367.147C-27.9216 350.954 167.597 416.441 257.667 451.209Z" stroke="#0077C8"/>
<path d="M242.038 435.999C276.129 450.659 281.309 504.332 29.3017 601.748C-31.2056 586.802 -203.648 524.699 -409.362 395.85C-666.503 234.789 -181.947 372.177 -105.061 351.936C-43.5511 335.743 151.967 401.231 242.038 435.999Z" stroke="#0077C8"/>
<path d="M225.742 420.142C259.833 434.802 265.013 488.476 13.0057 585.891C-47.5016 570.946 -219.944 508.843 -425.658 379.994C-682.799 218.933 -198.243 356.321 -121.357 336.08C-59.8471 319.887 135.671 385.375 225.742 420.142Z" stroke="#0077C8"/>
<path d="M208.795 403.646C242.886 418.305 248.066 471.979 -3.94127 569.394C-64.4486 554.449 -236.891 492.346 -442.605 363.497C-699.746 202.436 -215.19 339.824 -138.304 319.583C-76.7941 303.39 118.724 368.878 208.795 403.646Z" stroke="#0077C8"/>
<path d="M191.166 386.496C225.257 401.156 230.438 454.829 -21.5698 552.245C-82.0771 537.3 -254.52 475.197 -460.233 346.348C-717.375 185.286 -232.819 322.674 -155.932 302.433C-94.4226 286.241 101.096 351.728 191.166 386.496Z" stroke="#0077C8"/>
<path d="M172.886 368.707C206.977 383.367 212.158 437.04 -39.8498 534.456C-100.357 519.511 -272.8 457.408 -478.513 328.559C-735.655 167.498 -251.099 304.885 -174.212 284.644C-112.703 268.452 82.8157 333.939 172.886 368.707Z" stroke="#0077C8"/>
<path d="M153.955 350.279C188.046 364.939 193.227 418.612 -58.7811 516.028C-119.288 501.082 -291.731 438.979 -497.445 310.13C-754.586 149.069 -270.03 286.457 -193.143 266.216C-131.634 250.023 63.8844 315.511 153.955 350.279Z" stroke="#0077C8"/>
<path d="M134.342 331.197C168.434 345.857 173.614 399.53 -78.3937 496.946C-138.901 482.001 -311.344 419.898 -517.057 291.049C-774.199 129.987 -289.643 267.375 -212.756 247.134C-151.246 230.941 44.2718 296.429 134.342 331.197Z" stroke="#0077C8"/>
</svg>
