<svg width="1107" height="389" viewBox="0 0 1107 389" fill="none" xmlns="http://www.w3.org/2000/svg">
<path d="M27.4974 266.295C-9.5528 268.392 -38.1444 222.674 143.891 23.0219C204.708 9.39021 386.74 -12.001 628.335 11.4874C930.33 40.8479 435.395 134.173 375.625 186.602C327.809 228.546 123.617 257.207 27.4974 266.295Z" stroke="#FECC04"/>
<path d="M408.366 387.933C371.315 390.03 342.724 344.311 524.759 144.659C585.576 131.028 767.608 109.637 1009.2 133.125C1311.2 162.486 816.263 255.81 756.493 308.24C708.677 350.183 504.485 378.845 408.366 387.933Z" stroke="#FECC04"/>
<path d="M36.8363 269.276C-0.213934 271.373 -28.8055 225.655 153.23 26.0028C214.047 12.3711 396.079 -9.02013 637.674 14.4683C939.668 43.8289 444.734 137.153 384.964 189.583C337.148 231.527 132.956 260.188 36.8363 269.276Z" stroke="#FECC04"/>
<path d="M47.0443 272.538C9.99407 274.636 -18.5975 228.917 163.438 29.2653C224.255 15.6336 406.287 -5.75762 647.882 17.7308C949.876 47.0914 454.942 140.416 395.172 192.846C347.356 234.789 143.164 263.451 47.0443 272.538Z" stroke="#FECC04"/>
<path d="M58.1361 276.082C21.0859 278.179 -7.50571 232.46 174.53 32.8084C235.346 19.1767 417.379 -2.21453 658.974 21.2739C960.968 50.6345 466.033 143.959 406.264 196.389C358.448 238.332 154.255 266.994 58.1361 276.082Z" stroke="#FECC04"/>
<path d="M70.1126 279.906C33.0624 282.003 4.47085 236.285 186.506 36.6331C247.323 23.0014 429.355 1.61016 670.951 25.0986C972.945 54.4591 478.01 147.784 418.24 200.213C370.424 242.157 166.232 270.818 70.1126 279.906Z" stroke="#FECC04"/>
<path d="M82.974 284.011C45.9238 286.109 17.3322 240.39 199.368 40.7384C260.184 27.1067 442.217 5.71543 683.812 29.2039C985.806 58.5644 490.871 151.889 431.102 204.319C383.286 246.262 179.093 274.924 82.974 284.011Z" stroke="#FECC04"/>
<path d="M96.7044 288.398C59.6542 290.496 31.0626 244.777 213.098 45.1253C273.915 31.4936 455.947 10.1023 697.542 33.5908C999.537 62.9513 504.602 156.276 444.832 208.705C397.016 250.649 192.824 279.311 96.7044 288.398Z" stroke="#FECC04"/>
<path d="M111.319 293.066C74.2685 295.163 45.6769 249.444 227.712 49.7927C288.529 36.161 470.561 14.7698 712.157 38.2582C1014.15 67.6188 519.216 160.943 459.446 213.373C411.63 255.317 207.438 283.978 111.319 293.066Z" stroke="#FECC04"/>
<path d="M126.819 298.015C89.7685 300.112 61.1769 254.393 243.212 54.7418C304.029 41.1101 486.061 19.7188 727.657 43.2073C1029.65 72.5678 534.716 165.892 474.946 218.322C427.13 260.266 222.938 288.927 126.819 298.015Z" stroke="#FECC04"/>
<path d="M143.187 303.245C106.137 305.342 77.5451 259.623 259.58 59.9714C320.397 46.3397 502.429 24.9485 744.025 48.4369C1046.02 77.7975 551.084 171.122 491.314 223.552C443.499 265.495 239.306 294.157 143.187 303.245Z" stroke="#FECC04"/>
<path d="M160.455 308.756C123.405 310.853 94.8136 265.134 276.849 65.4826C337.666 51.851 519.698 30.4597 761.293 53.9481C1063.29 83.3087 568.353 176.633 508.583 229.063C460.767 271.007 256.575 299.668 160.455 308.756Z" stroke="#FECC04"/>
<path d="M178.593 314.548C141.543 316.645 112.951 270.926 294.987 71.2745C355.803 57.6428 537.836 36.2515 779.431 59.74C1081.43 89.1005 586.49 182.425 526.721 234.855C478.905 276.798 274.712 305.46 178.593 314.548Z" stroke="#FECC04"/>
<path d="M197.599 320.621C160.549 322.718 131.957 277 313.993 77.3479C374.809 63.7162 556.842 42.325 798.437 65.8134C1100.43 95.174 605.496 188.499 545.727 240.928C497.911 282.872 293.718 311.533 197.599 320.621Z" stroke="#FECC04"/>
<path d="M217.505 326.976C180.455 329.073 151.863 283.355 333.899 83.703C394.716 70.0713 576.748 48.68 818.343 72.1685C1120.34 101.529 625.402 194.854 565.633 247.283C517.817 289.227 313.625 317.888 217.505 326.976Z" stroke="#FECC04"/>
<path d="M238.281 333.612C201.23 335.709 172.639 289.99 354.674 90.3386C415.491 76.7069 597.523 55.3156 839.119 78.8041C1141.11 108.165 646.178 201.489 586.408 253.919C538.592 295.862 334.4 324.524 238.281 333.612Z" stroke="#FECC04"/>
<path d="M259.941 340.528C222.891 342.625 194.299 296.906 376.334 97.2548C437.151 83.6231 619.183 62.2318 860.779 85.7203C1162.77 115.081 667.838 208.405 608.068 260.835C560.253 302.779 356.06 331.44 259.941 340.528Z" stroke="#FECC04"/>
<path d="M282.469 347.727C245.419 349.824 216.827 304.105 398.863 104.454C459.679 90.8219 641.712 69.4307 883.307 92.9191C1185.3 122.28 690.366 215.604 630.597 268.034C582.781 309.977 378.588 338.639 282.469 347.727Z" stroke="#FECC04"/>
<path d="M305.899 355.205C268.849 357.302 240.257 311.584 422.292 111.932C483.109 98.3003 665.141 76.909 906.737 100.397C1208.73 129.758 713.796 223.083 654.026 275.512C606.211 317.456 402.018 346.117 305.899 355.205Z" stroke="#FECC04"/>
<path d="M330.197 362.965C293.146 365.062 264.555 319.344 446.59 119.692C507.407 106.06 689.439 84.669 931.035 108.157C1233.03 137.518 738.094 230.843 678.324 283.272C630.508 325.216 426.316 353.877 330.197 362.965Z" stroke="#FECC04"/>
<path d="M355.363 371.007C318.312 373.104 289.721 327.385 471.756 127.734C532.573 114.102 714.605 92.7106 956.201 116.199C1258.19 145.56 763.26 238.884 703.49 291.314C655.674 333.257 451.482 361.919 355.363 371.007Z" stroke="#FECC04"/>
<path d="M381.43 379.329C344.38 381.426 315.788 335.707 497.824 136.056C558.64 122.424 740.673 101.033 982.268 124.521C1284.26 153.882 789.327 247.206 729.558 299.636C681.742 341.58 477.549 370.241 381.43 379.329Z" stroke="#FECC04"/>
</svg>
