<svg width="32" height="32" viewBox="0 0 32 32" fill="none" xmlns="http://www.w3.org/2000/svg">
<path d="M13.88 16.824H11.504C11.12 16.824 11 16.68 11 16.32V13.416C11 13.032 11.144 12.912 11.504 12.912H13.88V10.8C13.88 9.84 14.048 8.928 14.528 8.088C15.032 7.224 15.752 6.648 16.664 6.312C17.264 6.096 17.864 6 18.512 6H20.864C21.2 6 21.344 6.144 21.344 6.48V9.216C21.344 9.552 21.2 9.696 20.864 9.696C20.216 9.696 19.568 9.696 18.92 9.72C18.272 9.72 17.936 10.032 17.936 10.704C17.912 11.424 17.936 12.12 17.936 12.864H20.72C21.104 12.864 21.248 13.008 21.248 13.392V16.296C21.248 16.68 21.128 16.8 20.72 16.8H17.936V24.624C17.936 25.032 17.816 25.176 17.384 25.176H14.384C14.024 25.176 13.88 25.032 13.88 24.672V16.824Z" fill="white"/>
</svg>
