<svg width="32" height="32" viewBox="0 0 32 32" fill="none" xmlns="http://www.w3.org/2000/svg">
<g clip-path="url(#clip0_301_13)">
<path d="M20.5 7H11.5C9.02522 7 7 9.02434 7 11.5V20.5C7 22.9748 9.02522 25 11.5 25H20.5C22.9748 25 25 22.9748 25 20.5V11.5C25 9.02434 22.9748 7 20.5 7ZM16 19.7499C13.9286 19.7499 12.2499 18.0704 12.2499 16C12.2499 13.9286 13.9286 12.2499 16 12.2499C18.0704 12.2499 19.7501 13.9286 19.7501 16C19.7501 18.0704 18.0704 19.7499 16 19.7499ZM20.8751 12.2499C20.2532 12.2499 19.7501 11.7461 19.7501 11.1249C19.7501 10.5037 20.2532 9.99993 20.8751 9.99993C21.497 9.99993 22.0001 10.5037 22.0001 11.1249C22.0001 11.7461 21.497 12.2499 20.8751 12.2499Z" fill="white"/>
</g>
<defs>
<clipPath id="clip0_301_13">
<rect width="18" height="18" fill="white" transform="translate(7 7)"/>
</clipPath>
</defs>
</svg>
