<svg width="32" height="32" viewBox="0 0 32 32" fill="none" xmlns="http://www.w3.org/2000/svg">
<path d="M19.728 5.66412C22.8157 6.78154 25.2589 9.23732 26.3585 12.3333H22.3189C21.8824 9.56273 20.9576 7.23218 19.728 5.66412ZM10.8667 16C10.8667 16.7507 10.9043 17.4866 10.9751 18.2H15.2668V13.8H10.9751C10.9027 14.5311 10.8666 15.2653 10.8667 16ZM15.2668 26.8686V19.6667H11.1784C11.8193 23.4073 13.3953 26.2644 15.2668 26.8686ZM22.6001 16C22.6001 16.754 22.5602 17.4861 22.4953 18.2H26.7783C26.9234 17.4888 27 16.7533 27 16C27 15.2467 26.9232 14.5111 26.7783 13.8H22.4953C22.5602 14.5139 22.6001 15.2459 22.6001 16ZM20.8218 12.3333C20.1809 8.59271 18.6049 5.73562 16.7334 5.13135V12.3333H20.8218ZM15.2668 12.3333V5.13135C13.3953 5.73562 11.8193 8.59271 11.1784 12.3333H15.2668ZM5.22165 13.8C5.07682 14.5111 5 15.2467 5 16C5 16.7533 5.07682 17.4888 5.22165 18.2H9.5049C9.44 17.4861 9.40004 16.754 9.40004 16C9.40004 15.2459 9.44 14.5139 9.5049 13.8H5.22165ZM16.7334 19.6667V26.8686C18.6049 26.2644 20.1809 23.4073 20.8218 19.6667H16.7334ZM22.3189 19.6667C21.8826 22.4372 20.9578 24.7678 19.728 26.3359C22.8157 25.2184 25.2589 22.7627 26.3585 19.6667H22.3189ZM9.68127 19.6667H5.64167C6.74131 22.7627 9.18444 25.2184 12.2722 26.3359C11.0425 24.7678 10.1178 22.4372 9.68127 19.6667ZM21.1335 16C21.1335 15.2492 21.0959 14.5133 21.0251 13.8H16.7334V18.2H21.0251C21.0974 17.4689 21.1336 16.7347 21.1335 16ZM9.68127 12.3333C10.1176 9.56273 11.0424 7.23218 12.2722 5.66412C9.18444 6.78154 6.74131 9.23732 5.64167 12.3333H9.68127Z" fill="white"/>
</svg>
