<svg width="24" height="39" viewBox="0 0 24 39" fill="none" xmlns="http://www.w3.org/2000/svg">
<path d="M20.9158 0H3.08417C2.67889 -1.87032e-07 2.27759 0.0735034 1.9032 0.216309C1.52881 0.359114 1.18867 0.568421 0.902241 0.832263C0.615809 1.09611 0.388695 1.40931 0.233882 1.75397C0.0790699 2.09863 -0.000404341 2.46799 1.54688e-06 2.84094V36.1619C1.54688e-06 37.728 1.37761 39 3.08417 39H20.9158C21.7337 38.9996 22.5179 38.7005 23.0962 38.1683C23.6745 37.6362 23.9996 36.9145 24 36.1619V2.84094C24 2.08797 23.6752 1.36579 23.0969 0.833096C22.5186 0.300398 21.7341 0.000753348 20.9158 0ZM7.6 1.72531H16.4031C16.6255 1.72531 16.8062 2.03087 16.8062 2.4089C16.8062 2.78693 16.6255 3.09391 16.4031 3.09391H7.6C7.37606 3.09391 7.19846 2.78693 7.19846 2.4089C7.19846 2.03087 7.37606 1.72531 7.6 1.72531ZM12.0015 36.196C11.4793 36.196 10.9785 36.0051 10.6092 35.6653C10.2399 35.3255 10.0324 34.8646 10.0324 34.384C10.0324 33.9034 10.2399 33.4425 10.6092 33.1027C10.9785 32.7629 11.4793 32.572 12.0015 32.572C12.5238 32.572 13.0246 32.7629 13.3939 33.1027C13.7632 33.4425 13.9707 33.9034 13.9707 34.384C13.9707 34.8646 13.7632 35.3255 13.3939 35.6653C13.0246 36.0051 12.5238 36.196 12.0015 36.196ZM21.6896 29.9869H2.31197V4.79364H21.6896V29.9869Z" fill="#0077C8"/>
<rect x="1" y="2.11902" width="2" height="28.6667" fill="#0077C8"/>
<rect x="21" y="2.11902" width="2" height="28.6667" fill="#0077C8"/>
</svg>
