<svg width="580" height="1010" viewBox="0 0 580 1010" fill="none" xmlns="http://www.w3.org/2000/svg">
<path d="M995.439 788.588C1025.11 810.878 1017.48 864.258 749.599 899.457C694.327 870.656 541.408 769.615 371.908 595.863C160.034 378.672 598.487 626.521 677.979 624.995C741.572 623.773 916.116 733.548 995.439 788.588Z" stroke="#FECC04"/>
<path d="M782.79 450.008C812.46 472.298 804.829 525.678 536.95 560.877C481.678 532.075 328.76 431.035 159.26 257.282C-52.6144 40.0919 385.839 287.941 465.33 286.414C528.924 285.193 703.468 394.968 782.79 450.008Z" stroke="#FECC04"/>
<path d="M990.223 780.287C1019.89 802.578 1012.26 855.958 744.383 891.156C689.111 862.355 536.193 761.315 366.693 587.562C154.819 370.372 593.272 618.22 672.763 616.694C736.357 615.473 910.901 725.247 990.223 780.287Z" stroke="#FECC04"/>
<path d="M984.526 771.211C1014.2 793.502 1006.56 846.882 738.686 882.08C683.414 853.279 530.495 752.239 360.996 578.486C149.121 361.296 587.574 609.144 667.066 607.618C730.659 606.397 905.203 716.171 984.526 771.211Z" stroke="#FECC04"/>
<path d="M978.333 761.35C1008 783.64 1000.37 837.021 732.493 872.219C677.221 843.418 524.303 742.377 354.803 568.625C142.929 351.434 581.382 599.283 660.873 597.757C724.467 596.535 899.011 706.31 978.333 761.35Z" stroke="#FECC04"/>
<path d="M971.646 750.703C1001.32 772.994 993.684 826.374 725.806 861.572C670.534 832.771 517.615 731.731 348.116 557.978C136.241 340.788 574.694 588.636 654.186 587.11C717.78 585.889 892.324 695.663 971.646 750.703Z" stroke="#FECC04"/>
<path d="M964.464 739.272C994.133 761.562 986.502 814.942 718.624 850.141C663.352 821.339 510.433 720.299 340.933 546.546C129.059 329.356 567.512 577.205 647.004 575.678C710.597 574.457 885.141 684.232 964.464 739.272Z" stroke="#FECC04"/>
<path d="M956.799 727.065C986.468 749.355 978.837 802.735 710.959 837.934C655.687 809.132 502.768 708.092 333.269 534.339C121.394 317.149 559.847 564.998 639.339 563.471C702.933 562.25 877.476 672.025 956.799 727.065Z" stroke="#FECC04"/>
<path d="M948.639 714.073C978.309 736.363 970.678 789.743 702.799 824.941C647.527 796.14 494.609 695.1 325.109 521.347C113.235 304.157 551.688 552.005 631.179 550.479C694.773 549.258 869.317 659.033 948.639 714.073Z" stroke="#FECC04"/>
<path d="M939.985 700.295C969.654 722.585 962.023 775.965 694.145 811.164C638.873 782.362 485.954 681.322 316.455 507.569C104.58 290.379 543.033 538.228 622.525 536.701C686.118 535.48 860.662 645.255 939.985 700.295Z" stroke="#FECC04"/>
<path d="M930.848 685.742C960.517 708.033 952.886 761.413 685.008 796.611C629.736 767.81 476.817 666.77 307.317 493.017C95.443 275.827 533.896 523.675 613.388 522.149C676.981 520.928 851.525 630.702 930.848 685.742Z" stroke="#FECC04"/>
<path d="M921.204 670.394C950.873 692.684 943.242 746.064 675.363 781.263C620.091 752.462 467.173 651.421 297.673 477.669C85.7987 260.478 524.252 508.327 603.743 506.8C667.337 505.579 841.881 615.354 921.204 670.394Z" stroke="#FECC04"/>
<path d="M911.077 654.271C940.746 676.561 933.115 729.941 665.236 765.14C609.965 736.339 457.046 635.298 287.546 461.546C75.6717 244.355 514.125 492.204 593.617 490.677C657.21 489.456 831.754 599.231 911.077 654.271Z" stroke="#FECC04"/>
<path d="M900.468 637.373C930.137 659.663 922.506 713.043 654.627 748.241C599.356 719.44 446.437 618.4 276.937 444.647C65.0627 227.457 503.516 475.305 583.008 473.779C646.601 472.558 821.145 582.333 900.468 637.373Z" stroke="#FECC04"/>
<path d="M889.351 619.678C919.021 641.968 911.389 695.348 643.511 730.547C588.239 701.746 435.321 600.705 265.821 426.953C53.9465 209.762 492.4 457.611 571.891 456.084C635.485 454.863 810.029 564.638 889.351 619.678Z" stroke="#FECC04"/>
<path d="M877.752 601.209C907.422 623.499 899.791 676.879 631.912 712.078C576.64 683.277 423.722 582.236 254.222 408.484C42.3476 191.293 480.801 439.142 560.292 437.615C623.886 436.394 798.43 546.169 877.752 601.209Z" stroke="#FECC04"/>
<path d="M865.658 581.955C895.327 604.245 887.696 657.625 619.818 692.824C564.546 664.023 411.627 562.982 242.128 389.23C30.2534 172.039 468.706 419.888 548.198 418.361C611.792 417.14 786.335 526.915 865.658 581.955Z" stroke="#FECC04"/>
<path d="M853.083 561.925C882.752 584.215 875.121 637.595 607.243 672.794C551.971 643.992 399.052 542.952 229.552 369.2C17.6778 152.009 456.131 399.858 535.623 398.331C599.216 397.11 773.76 506.885 853.083 561.925Z" stroke="#FECC04"/>
<path d="M839.999 541.1C869.668 563.39 862.037 616.77 594.159 651.969C538.887 623.168 385.968 522.127 216.468 348.375C4.59384 131.184 443.047 379.033 522.539 377.506C586.132 376.285 760.676 486.06 839.999 541.1Z" stroke="#FECC04"/>
<path d="M826.433 519.5C856.102 541.79 848.471 595.17 580.592 630.369C525.32 601.568 372.402 500.527 202.902 326.775C-8.97232 109.584 429.481 357.433 508.972 355.906C572.566 354.685 747.11 464.46 826.433 519.5Z" stroke="#FECC04"/>
<path d="M812.384 497.125C842.054 519.415 834.423 572.795 566.544 607.994C511.272 579.192 358.354 478.152 188.854 304.399C-23.0204 87.2088 415.433 335.057 494.924 333.531C558.518 332.31 733.062 442.085 812.384 497.125Z" stroke="#FECC04"/>
<path d="M797.828 473.954C827.498 496.244 819.867 549.624 551.988 584.823C496.716 556.021 343.798 454.981 174.298 281.229C-37.5764 64.038 400.877 311.887 480.368 310.36C543.962 309.139 718.506 418.914 797.828 473.954Z" stroke="#FECC04"/>
</svg>
