<svg width="976" height="840" viewBox="0 0 976 840" fill="none" xmlns="http://www.w3.org/2000/svg">
<path d="M1083.61 590.316C1117.7 604.976 1122.89 658.65 870.877 756.065C810.37 741.12 637.927 679.017 432.214 550.168C175.072 389.107 659.628 526.495 736.515 506.254C798.025 490.061 993.543 555.549 1083.61 590.316Z" stroke="#0077C8"/>
<path d="M797.075 311.476C831.167 326.136 836.347 379.809 584.339 477.225C523.832 462.279 351.389 400.176 145.676 271.327C-111.466 110.266 373.09 247.654 449.977 227.413C511.487 211.22 707.005 276.708 797.075 311.476Z" stroke="#0077C8"/>
<path d="M1076.59 583.481C1110.68 598.14 1115.86 651.814 863.851 749.23C803.344 734.284 630.901 672.181 425.188 543.332C168.046 382.271 652.602 519.659 729.489 499.418C790.998 483.225 986.517 548.713 1076.59 583.481Z" stroke="#0077C8"/>
<path d="M1068.91 576.005C1103 590.665 1108.18 644.338 856.172 741.754C795.665 726.809 623.222 664.706 417.509 535.857C160.367 374.796 644.923 512.184 721.81 491.943C783.32 475.75 978.838 541.237 1068.91 576.005Z" stroke="#0077C8"/>
<path d="M1060.56 567.884C1094.65 582.544 1099.84 636.217 847.828 733.633C787.32 718.688 614.877 656.585 409.164 527.736C152.023 366.674 636.579 504.062 713.465 483.821C774.975 467.628 970.493 533.116 1060.56 567.884Z" stroke="#0077C8"/>
<path d="M1051.55 559.116C1085.64 573.776 1090.82 627.449 838.817 724.865C778.31 709.919 605.867 647.816 400.153 518.967C143.012 357.906 627.568 495.294 704.455 475.053C765.964 458.86 961.482 524.348 1051.55 559.116Z" stroke="#0077C8"/>
<path d="M1041.88 549.702C1075.97 564.361 1081.15 618.035 829.14 715.451C768.633 700.505 596.19 638.402 390.477 509.553C133.335 348.492 617.891 485.88 694.778 465.639C756.287 449.446 951.806 514.934 1041.88 549.702Z" stroke="#0077C8"/>
<path d="M1031.55 539.648C1065.64 554.308 1070.82 607.981 818.811 705.397C758.304 690.451 585.861 628.348 380.148 499.499C123.006 338.438 607.562 475.826 684.449 455.585C745.958 439.392 941.477 504.88 1031.55 539.648Z" stroke="#0077C8"/>
<path d="M1020.55 528.948C1054.64 543.608 1059.82 597.281 807.816 694.697C747.309 679.752 574.866 617.649 369.152 488.8C112.011 327.739 596.567 465.127 673.454 444.886C734.963 428.693 930.481 494.18 1020.55 528.948Z" stroke="#0077C8"/>
<path d="M1008.89 517.602C1042.98 532.262 1048.16 585.935 796.155 683.351C735.648 668.405 563.205 606.302 357.491 477.453C100.35 316.392 584.906 453.78 661.793 433.539C723.302 417.346 918.82 482.834 1008.89 517.602Z" stroke="#0077C8"/>
<path d="M996.578 505.617C1030.67 520.276 1035.85 573.95 783.842 671.365C723.335 656.42 550.892 594.317 345.179 465.468C88.0372 304.407 572.593 441.795 649.48 421.554C710.989 405.361 906.508 470.849 996.578 505.617Z" stroke="#0077C8"/>
<path d="M983.584 492.977C1017.68 507.637 1022.86 561.31 770.848 658.726C710.341 643.781 537.898 581.678 332.185 452.829C75.0431 291.767 559.599 429.155 636.486 408.914C697.995 392.721 893.514 458.209 983.584 492.977Z" stroke="#0077C8"/>
<path d="M969.939 479.699C1004.03 494.359 1009.21 548.032 757.203 645.448C696.695 630.503 524.252 568.4 318.539 439.551C61.3976 278.489 545.954 415.877 622.84 395.636C684.35 379.443 879.868 444.931 969.939 479.699Z" stroke="#0077C8"/>
<path d="M955.642 465.781C989.733 480.441 994.913 534.115 742.906 631.53C682.398 616.585 509.956 554.482 304.242 425.633C47.1007 264.572 531.657 401.96 608.544 381.719C670.053 365.526 865.571 431.013 955.642 465.781Z" stroke="#0077C8"/>
<path d="M940.664 451.21C974.755 465.869 979.936 519.543 727.928 616.958C667.421 602.013 494.978 539.91 289.265 411.061C32.1231 250 516.679 387.388 593.566 367.147C655.075 350.954 850.594 416.442 940.664 451.21Z" stroke="#0077C8"/>
<path d="M925.034 435.999C959.126 450.659 964.306 504.332 712.298 601.748C651.791 586.803 479.348 524.7 273.635 395.851C16.4933 234.789 501.049 372.177 577.936 351.936C639.446 335.743 834.964 401.231 925.034 435.999Z" stroke="#0077C8"/>
<path d="M908.738 420.143C942.83 434.802 948.01 488.476 696.002 585.891C635.495 570.946 463.052 508.843 257.339 379.994C0.197359 218.933 484.753 356.321 561.64 336.08C623.15 319.887 818.668 385.375 908.738 420.143Z" stroke="#0077C8"/>
<path d="M891.792 403.646C925.883 418.305 931.064 471.979 679.056 569.394C618.549 554.449 446.106 492.346 240.393 363.497C-16.7489 202.436 467.807 339.824 544.694 319.583C606.203 303.39 801.722 368.878 891.792 403.646Z" stroke="#0077C8"/>
<path d="M874.163 386.496C908.254 401.156 913.435 454.829 661.427 552.245C600.92 537.3 428.477 475.197 222.764 346.348C-34.3778 185.287 450.178 322.675 527.065 302.433C588.574 286.241 784.093 351.728 874.163 386.496Z" stroke="#0077C8"/>
<path d="M855.883 368.707C889.974 383.367 895.155 437.04 643.147 534.456C582.64 519.511 410.197 457.408 204.484 328.559C-52.6581 167.498 431.898 304.886 508.785 284.645C570.294 268.452 765.812 333.939 855.883 368.707Z" stroke="#0077C8"/>
<path d="M836.952 350.279C871.044 364.939 876.224 418.612 624.216 516.028C563.709 501.082 391.266 438.979 185.553 310.13C-71.5888 149.069 412.967 286.457 489.854 266.216C551.364 250.023 746.882 315.511 836.952 350.279Z" stroke="#0077C8"/>
<path d="M817.339 331.197C851.43 345.857 856.611 399.53 604.603 496.946C544.096 482.001 371.653 419.898 165.94 291.049C-91.2021 129.987 393.354 267.375 470.241 247.134C531.75 230.942 727.269 296.429 817.339 331.197Z" stroke="#0077C8"/>
</svg>
