<svg width="147" height="65" viewBox="0 0 147 65" fill="none" xmlns="http://www.w3.org/2000/svg">
<path d="M143.916 12H126.084C125.679 12 125.278 12.0735 124.903 12.2163C124.529 12.3591 124.189 12.5684 123.902 12.8323C123.616 13.0961 123.389 13.4093 123.234 13.754C123.079 14.0986 123 14.468 123 14.8409V48.1619C123 49.728 124.378 51 126.084 51H143.916C144.734 50.9996 145.518 50.7005 146.096 50.1683C146.675 49.6362 147 48.9145 147 48.1619V14.8409C147 14.088 146.675 13.3658 146.097 12.8331C145.519 12.3004 144.734 12.0008 143.916 12ZM130.6 13.7253H139.403C139.625 13.7253 139.806 14.0309 139.806 14.4089C139.806 14.7869 139.625 15.0939 139.403 15.0939H130.6C130.376 15.0939 130.198 14.7869 130.198 14.4089C130.198 14.0309 130.376 13.7253 130.6 13.7253ZM135.002 48.196C134.479 48.196 133.978 48.0051 133.609 47.6653C133.24 47.3255 133.032 46.8646 133.032 46.384C133.032 45.9034 133.24 45.4425 133.609 45.1027C133.978 44.7629 134.479 44.572 135.002 44.572C135.524 44.572 136.025 44.7629 136.394 45.1027C136.763 45.4425 136.971 45.9034 136.971 46.384C136.971 46.8646 136.763 47.3255 136.394 47.6653C136.025 48.0051 135.524 48.196 135.002 48.196ZM144.69 41.9869H125.312V16.7936H144.69V41.9869Z" fill="#0077C8"/>
<rect x="124" y="14.119" width="2" height="28.6667" fill="#0077C8"/>
<rect x="144" y="14.119" width="2" height="28.6667" fill="#0077C8"/>
<path d="M1.458 51V45.438L14.364 32.154C17.244 29.13 18.684 26.61 18.684 24.594C18.684 23.118 18.216 21.93 17.28 21.03C16.38 20.13 15.21 19.68 13.77 19.68C10.926 19.68 8.82 21.156 7.452 24.108L1.188 20.436C2.376 17.844 4.086 15.864 6.318 14.496C8.55 13.128 10.998 12.444 13.662 12.444C17.082 12.444 20.016 13.524 22.464 15.684C24.912 17.808 26.136 20.688 26.136 24.324C26.136 28.248 24.066 32.28 19.926 36.42L12.528 43.818H26.73V51H1.458ZM43.122 26.97C46.758 26.97 49.818 28.068 52.302 30.264C54.786 32.424 56.028 35.448 56.028 39.336C56.028 43.224 54.714 46.266 52.086 48.462C49.494 50.658 46.308 51.756 42.528 51.756C39.468 51.756 36.768 51.072 34.428 49.704C32.088 48.336 30.396 46.32 29.352 43.656L35.724 39.93C36.66 42.954 38.928 44.466 42.528 44.466C44.436 44.466 45.912 44.016 46.956 43.116C48.036 42.18 48.576 40.92 48.576 39.336C48.576 37.788 48.054 36.546 47.01 35.61C45.966 34.674 44.544 34.206 42.744 34.206H31.296L32.808 13.2H54.246V20.166H39.72L39.234 26.97H43.122ZM72.1786 26.97C75.8146 26.97 78.8746 28.068 81.3586 30.264C83.8426 32.424 85.0846 35.448 85.0846 39.336C85.0846 43.224 83.7706 46.266 81.1426 48.462C78.5506 50.658 75.3646 51.756 71.5846 51.756C68.5246 51.756 65.8246 51.072 63.4846 49.704C61.1446 48.336 59.4526 46.32 58.4086 43.656L64.7806 39.93C65.7166 42.954 67.9846 44.466 71.5846 44.466C73.4926 44.466 74.9686 44.016 76.0126 43.116C77.0926 42.18 77.6326 40.92 77.6326 39.336C77.6326 37.788 77.1106 36.546 76.0666 35.61C75.0226 34.674 73.6006 34.206 71.8006 34.206H60.3526L61.8646 13.2H83.3026V20.166H68.7766L68.2906 26.97H72.1786ZM87.415 51V45.438L100.321 32.154C103.201 29.13 104.641 26.61 104.641 24.594C104.641 23.118 104.173 21.93 103.237 21.03C102.337 20.13 101.167 19.68 99.727 19.68C96.883 19.68 94.777 21.156 93.409 24.108L87.145 20.436C88.333 17.844 90.043 15.864 92.275 14.496C94.507 13.128 96.955 12.444 99.619 12.444C103.039 12.444 105.973 13.524 108.421 15.684C110.869 17.808 112.093 20.688 112.093 24.324C112.093 28.248 110.023 32.28 105.883 36.42L98.485 43.818H112.687V51H87.415Z" fill="#0077C8"/>
</svg>
