<svg width="28" height="28" viewBox="0 0 28 28" fill="none" xmlns="http://www.w3.org/2000/svg">
<path d="M16.4517 22.568C17.0347 22.491 17.5606 22.387 17.9716 22.2586V23.2282C16.8607 23.5575 15.4006 23.75 13.8737 23.75C10.5936 23.75 7.94055 22.7938 6.11015 21.1094C4.28201 19.4271 3.25 16.9961 3.25 13.9947C3.25 11.0925 4.30849 8.6617 6.12769 6.95535C7.94819 5.24778 10.5477 4.25 13.6547 4.25C16.6569 4.25 19.1824 5.14032 20.9531 6.65014C22.7209 8.15747 23.75 10.2929 23.75 12.8203C23.75 14.7361 23.2877 16.2744 22.4884 17.3274C21.6943 18.3734 20.5557 18.9577 19.1501 18.9577C17.7178 18.9577 16.6927 18.1705 16.5616 17.1632L16.5333 16.9454H16.3137H16.1061H15.9451L15.8785 17.0921C15.3704 18.2109 14.3086 18.8508 12.881 18.8508C11.607 18.8508 10.5544 18.3664 9.81752 17.5304C9.07825 16.6916 8.64153 15.4808 8.64153 14.007C8.64153 12.604 9.08573 11.4296 9.8298 10.609C10.5722 9.79013 11.6259 9.30872 12.8791 9.30872C14.161 9.30872 15.2214 9.91797 15.6733 10.8569L15.7414 10.9985H15.8985H16.1061H16.3561V10.7485V9.53659H17.8036V16.3173C17.8036 16.7918 17.9543 17.1979 18.2648 17.483C18.5723 17.7654 19.0043 17.8994 19.5105 17.8994C20.44 17.8994 21.1805 17.3489 21.6757 16.4487C22.1677 15.5542 22.4327 14.2947 22.4327 12.7958C22.4327 10.5593 21.5167 8.66774 19.9308 7.33946C18.3483 6.0141 16.1138 5.26096 13.4868 5.26096C8.30768 5.26096 4.56731 8.9402 4.56731 14.0666C4.56731 16.6847 5.48037 18.8569 7.1182 20.3732C8.75404 21.8876 11.0899 22.7268 13.9001 22.7268C14.7932 22.7268 15.6817 22.6697 16.4517 22.568ZM13.2037 10.4617C12.2744 10.4617 11.5127 10.7991 10.9884 11.4375C10.4696 12.0694 10.2061 12.9681 10.2061 14.0543C10.2061 15.1346 10.4734 16.0352 10.9892 16.6709C11.5101 17.3128 12.2644 17.6593 13.1773 17.6593C14.1272 17.6593 14.9242 17.3063 15.4806 16.6639C16.0336 16.0253 16.3297 15.1234 16.3297 14.0543C16.3297 12.9859 16.0373 12.0871 15.4892 11.4514C14.9377 10.8116 14.1469 10.4617 13.2037 10.4617Z" fill="#0077C8" stroke="#0077C8" stroke-width="0.5"/>
</svg>
