<svg width="34" height="34" viewBox="0 0 34 34" fill="none" xmlns="http://www.w3.org/2000/svg">
<path d="M5.19271 15.7416C4.60591 15.7433 4.03157 15.911 3.53614 16.2255C3.0407 16.5399 2.64442 16.9882 2.39313 17.5185C2.14184 18.0487 2.04582 18.6393 2.11617 19.2219C2.18652 19.8044 2.42037 20.3552 2.79067 20.8104L10.6846 30.4804C10.966 30.8298 11.3268 31.1071 11.7369 31.2892C12.1471 31.4712 12.5947 31.5528 13.0427 31.5271C14.0009 31.4756 14.8659 30.9631 15.4174 30.1204L31.815 3.71203C31.8177 3.70762 31.8205 3.70326 31.8234 3.69896C31.9773 3.46272 31.9274 2.99457 31.6098 2.70047C31.5226 2.6197 31.4197 2.55766 31.3076 2.51814C31.1954 2.47863 31.0764 2.46249 30.9578 2.47072C30.8392 2.47894 30.7236 2.51136 30.618 2.56598C30.5124 2.62059 30.4191 2.69624 30.3438 2.78828C30.3379 2.79552 30.3319 2.80264 30.3256 2.80966L13.7884 21.4942C13.7255 21.5653 13.6491 21.6232 13.5636 21.6645C13.4781 21.7059 13.3853 21.7298 13.2904 21.7349C13.1956 21.74 13.1008 21.7263 13.0113 21.6944C12.9219 21.6626 12.8396 21.6132 12.7694 21.5493L7.28102 16.5549C6.71101 16.0323 5.96598 15.7422 5.19271 15.7416Z" fill="#0077C8"/>
</svg>
